<?xml version="1.0" encoding="UTF-8"?>
<svg id="Layer_2" data-name="Layer 2" xmlns="http://www.w3.org/2000/svg" viewBox="0 0 407.65 120.14">
  <defs>
    <style>
      .cls-1 {
        fill: #191c24;
        stroke-width: 0px;
      }
    </style>
  </defs>
  <g id="_Слой_1">
    <g>
      <path class="cls-1" d="m44.28,26.25v44.51c0,14.9,6.72,22.35,20.19,22.35h19.86v27.01h-19.86c-15.07,0-27.05-4.19-35.86-12.54-8.85-8.35-13.24-20.63-13.24-36.83V26.25H0V0h84.33v26.25h-40.05Z"/>
      <path class="cls-1" d="m182.43,0v26.98h-26.5c-15.87,0-23.82,8.85-23.82,26.51v66.65h-28.94V53.49c0-17.66,4.76-31,14.24-39.99C126.89,4.49,139.73,0,155.93,0h26.5Z"/>
      <path class="cls-1" d="m407.65,0v26.98h-26.5c-15.87,0-23.82,8.85-23.82,26.51v66.65h-28.94V53.49c0-17.66,4.76-31,14.24-39.99,9.48-9.02,22.32-13.51,38.52-13.51h26.5Z"/>
      <path class="cls-1" d="m257.9,58.85L314.32,0h-36.96l-47.17,52.03h-.5V0h-28.91v120.12h28.91v-53.72h.47l48.67,53.72h37.69l-58.62-61.28Z"/>
    </g>
  </g>
</svg>
